<svg width="215" height="23" viewBox="0 0 215 23" fill="none" xmlns="http://www.w3.org/2000/svg">
<g clip-path="url(#clip0_257_193)">
<path d="M20.3663 16.2669C20.3663 16.9711 20.1836 17.7201 19.8182 18.4836C19.1602 19.7983 18.061 20.7807 16.5504 21.4018C15.056 22.0216 13.232 22.3341 11.1272 22.3341C9.02239 22.3341 7.17902 22.0835 5.48864 21.5877C3.7953 21.0893 2.14503 20.1926 0.576454 18.9201L0.450195 18.8199L1.2835 18.0419L1.40382 18.1421C2.75552 19.2867 4.16962 20.0726 5.60747 20.4774C7.05573 20.8875 8.50993 21.1236 9.93442 21.1816C10.0934 21.2027 10.236 21.2106 10.3756 21.2106H10.8598C11.6263 21.2106 12.4002 21.1512 13.1651 21.0365C13.9257 20.9192 14.6401 20.7214 15.2907 20.4405C15.9354 20.1636 16.4998 19.7864 16.9752 19.3196C17.4401 18.8568 17.752 18.2792 17.9021 17.5975C18.0283 17.008 17.9318 16.4858 17.6228 16.0467C17.3079 15.5957 16.8088 15.1883 16.1448 14.8349C15.4705 14.4775 14.6268 14.1479 13.6434 13.8564C12.6542 13.565 11.5476 13.2868 10.3563 13.031C9.33284 12.816 8.22771 12.5628 7.06464 12.2767C5.8897 11.9879 4.79348 11.5897 3.80718 11.0912C2.81048 10.5901 1.99352 9.93871 1.36965 9.15411C0.738361 8.3616 0.453166 7.34359 0.522979 6.12911C0.589822 5.04122 0.925521 4.10893 1.51968 3.3573C2.11086 2.61489 2.86099 2.00699 3.75816 1.55338C4.64791 1.10503 5.64164 0.775369 6.70666 0.574933C7.77318 0.377134 8.83226 0.276917 9.86164 0.276917C10.6459 0.294059 11.4421 0.362629 12.2368 0.472078C13.0344 0.581526 13.8336 0.758226 14.6179 0.994265C15.4021 1.23294 16.1716 1.54546 16.9128 1.92524C17.657 2.30501 18.3536 2.77973 18.9849 3.34015L19.1171 3.45751L18.1575 4.10893L18.0551 4.02586C16.9663 3.15554 15.674 2.50413 14.2123 2.08611C12.7418 1.67074 11.2534 1.41624 9.78142 1.33975H9.29273C8.44606 1.33975 7.63206 1.44261 6.87154 1.64304C6.11399 1.84612 5.43962 2.13227 4.86923 2.4949C4.30182 2.85753 3.85323 3.294 3.53387 3.79509C3.21451 4.29354 3.05557 4.85397 3.05557 5.45528C3.05557 5.97747 3.1848 6.40999 3.44474 6.7502C3.7032 7.09173 4.14288 7.39898 4.74595 7.66139C5.36684 7.93303 6.2046 8.20995 7.23695 8.48423C8.28266 8.76115 9.57198 9.09477 11.1064 9.48905C12.7938 9.90179 14.2421 10.3317 15.4111 10.7681C16.586 11.2046 17.5471 11.6912 18.2704 12.2094C18.9983 12.7369 19.536 13.3329 19.8672 13.9817C20.1955 14.6305 20.3648 15.3966 20.3648 16.2643L20.3663 16.2669Z" fill="#353535"/>
<path d="M11.1271 22.6139C9.04009 22.6139 7.11057 22.358 5.389 21.8543C3.65258 21.344 1.9622 20.4262 0.363921 19.1273L0 18.8372L1.27149 17.6491L1.61908 17.9405C2.93959 19.0574 4.31358 19.8223 5.70242 20.2126C7.11948 20.6135 8.54843 20.8469 9.94915 20.9049L9.98034 20.9075C10.1185 20.926 10.2477 20.9339 10.3769 20.9339H10.8612C11.6068 20.9339 12.3644 20.8772 13.113 20.7638C13.8513 20.6491 14.539 20.4565 15.154 20.1928C15.757 19.933 16.2918 19.5783 16.7418 19.1366C17.1682 18.712 17.4548 18.1779 17.593 17.5489C17.7029 17.0346 17.6227 16.5797 17.3553 16.1986C17.0671 15.7872 16.6052 15.41 15.9828 15.0777C15.3278 14.7309 14.5063 14.4105 13.5438 14.1244C12.5709 13.8369 11.4732 13.5613 10.2819 13.3055C9.25399 13.0892 8.14291 12.8347 6.98134 12.5486C5.77817 12.2532 4.65819 11.8457 3.65258 11.3367C2.62172 10.8185 1.76762 10.1394 1.11404 9.31786C0.441161 8.47128 0.136656 7.39525 0.20944 6.11748C0.279254 4.97684 0.632777 3.99576 1.26258 3.20061C1.88348 2.42128 2.67073 1.78569 3.60207 1.31493C4.52302 0.850764 5.54645 0.51187 6.64118 0.30616C7.72998 0.104405 8.81283 0.00286865 9.86151 0.00286865C10.6443 0.0200112 11.4568 0.0872626 12.2842 0.200667C13.0878 0.310116 13.9077 0.489453 14.7187 0.733404C15.5238 0.978674 16.3141 1.29911 17.0701 1.68811C17.841 2.08239 18.56 2.57293 19.2076 3.14786L19.5938 3.49071L18.1426 4.47575L17.8455 4.23839C16.7923 3.39709 15.5372 2.76413 14.1172 2.35667C12.66 1.94525 11.1954 1.69866 9.76496 1.6235H9.29558C8.48456 1.6235 7.69878 1.7224 6.96351 1.91624C6.23864 2.1114 5.59547 2.38436 5.05479 2.72721C4.5245 3.06611 4.10562 3.47357 3.81003 3.93774C3.51889 4.39136 3.37184 4.90431 3.37184 5.46079C3.37184 5.92495 3.48473 6.30868 3.70605 6.59879C3.9348 6.90076 4.3314 7.17504 4.88545 7.41503C5.49595 7.6814 6.31737 7.95305 7.32892 8.22073C8.35384 8.49238 9.61642 8.8194 11.1954 9.22555C12.8917 9.64093 14.3533 10.0748 15.5342 10.5152C16.727 10.9583 17.7148 11.4567 18.4694 11.9974C19.2373 12.5538 19.8032 13.1842 20.1553 13.8712C20.5043 14.5608 20.6811 15.3665 20.6811 16.2685C20.6811 17.0175 20.488 17.7994 20.1077 18.5946C19.417 19.9766 18.2644 21.0051 16.6824 21.6565C15.1495 22.2921 13.2794 22.6139 11.1271 22.6139ZM0.900147 18.8056C2.40188 20.0042 3.97639 20.8508 5.58656 21.3255C7.24277 21.8108 9.10693 22.0574 11.1271 22.0574C13.1472 22.0574 14.9668 21.7528 16.418 21.1515C17.8589 20.5581 18.9061 19.6232 19.5314 18.3717C19.876 17.6504 20.0528 16.941 20.0528 16.2672C20.0528 15.4443 19.8938 14.7151 19.5819 14.0993C19.2715 13.4927 18.7635 12.9297 18.0728 12.4286C17.3657 11.9222 16.4299 11.4514 15.2906 11.0282C14.1335 10.597 12.6986 10.1697 11.0246 9.75961C9.43966 9.35214 8.17559 9.02511 7.14919 8.75215C6.10496 8.47523 5.25086 8.19304 4.60917 7.91217C3.95411 7.62734 3.47582 7.28976 3.18468 6.90735C2.89206 6.52362 2.74352 6.03572 2.74352 5.45683C2.74352 4.80278 2.91879 4.19751 3.2634 3.6595C3.60356 3.12413 4.08334 2.65732 4.68789 2.27096C5.28502 1.89118 5.99058 1.59185 6.7823 1.37823C7.57698 1.16856 8.42217 1.06307 9.29409 1.06307H9.78279C11.283 1.14087 12.7996 1.39537 14.3088 1.8213C15.7734 2.24063 17.0731 2.88941 18.1752 3.74785L18.6431 3.43137C18.0683 2.9382 17.434 2.51227 16.7582 2.16678C16.0363 1.79624 15.2832 1.49031 14.5182 1.25691C13.7428 1.02351 12.96 0.852083 12.1906 0.746591C11.3885 0.637142 10.6042 0.572528 9.85557 0.555386C8.85887 0.555386 7.81761 0.654285 6.77338 0.846809C5.74104 1.04065 4.77999 1.35977 3.91549 1.79492C3.06436 2.22612 2.34543 2.80501 1.77801 3.51709C1.21802 4.22521 0.901632 5.10871 0.839246 6.14253C0.773889 7.29108 1.03829 8.24974 1.62947 8.99215C2.22957 9.7451 3.01534 10.3688 3.96599 10.8475C4.92853 11.3328 5.9995 11.7231 7.15216 12.0066C8.30779 12.2914 9.41144 12.5433 10.4319 12.7595C11.641 13.0193 12.7551 13.2989 13.7458 13.5916C14.7514 13.8896 15.6129 14.2285 16.3081 14.5951C17.0181 14.9736 17.5514 15.4114 17.8915 15.8993C18.2451 16.4017 18.3535 16.9911 18.2124 17.6491C18.052 18.3783 17.7163 19.0021 17.2112 19.5045C16.7047 20.0003 16.1061 20.3998 15.4302 20.6899C14.7633 20.9774 14.0206 21.1858 13.2215 21.3097C12.4357 21.4284 11.6425 21.4877 10.8627 21.4877H10.3784C10.2239 21.4877 10.0695 21.4785 9.90756 21.4574C8.45633 21.3967 6.97837 21.1554 5.51526 20.7401C4.07294 20.3352 2.65439 19.5585 1.29823 18.4324L0.903118 18.8016L0.900147 18.8056Z" fill="#353535"/>
<path d="M52.4848 0.632935V1.87643H41.8806V21.742H38.2443V1.87643H27.6401V0.632935H52.4848Z" fill="#353535"/>
<path d="M42.194 22.0202H37.9294V2.15468H27.3252V0.353394H52.7982V2.15468H42.194V22.0202ZM38.5577 21.4638H41.5656V1.5982H52.1698V0.911185H27.9535V1.5982H38.5577V21.4638Z" fill="#353535"/>
<path d="M85.1369 0.690979V13.5123C85.1369 15.0274 84.8175 16.3777 84.1877 17.5276C83.5564 18.6775 82.7068 19.6506 81.6611 20.4194C80.6183 21.1895 79.4196 21.7697 78.1035 22.1495C76.7919 22.5266 75.4194 22.7178 74.0321 22.7178C72.6447 22.7178 71.3094 22.5266 69.9978 22.1495C68.6787 21.7697 67.4904 21.1855 66.4581 20.4194C65.4183 19.6493 64.5746 18.6775 63.9478 17.5276C63.3165 16.3804 62.9941 15.0274 62.9941 13.5123V0.690979H66.5977V13.5123C66.5977 14.7479 66.8368 15.8595 67.3151 16.8116C67.7934 17.7663 68.4336 18.5772 69.2283 19.2207C70.0186 19.8669 70.9321 20.3587 71.9421 20.6858C73.9578 21.3438 76.1725 21.3517 78.1956 20.6594C79.2012 20.3113 80.1148 19.7812 80.905 19.0796C81.6952 18.3755 82.3458 17.4762 82.8375 16.4028C83.3262 15.3294 83.5742 14.0503 83.5742 12.5932V0.690979H85.1384H85.1369Z" fill="#353535"/>
<path d="M74.0306 23C72.6328 23 71.2425 22.8035 69.8982 22.4172C68.548 22.0268 67.3211 21.4282 66.2531 20.6357C65.1806 19.8418 64.3087 18.8383 63.6611 17.6515C63.0075 16.4648 62.6763 15.0722 62.6763 13.5149V0.41275H66.9081V13.5136C66.9081 14.7149 67.1399 15.787 67.5989 16.6995C68.0623 17.6238 68.6802 18.4032 69.4363 19.0163C70.1953 19.6361 71.0732 20.1108 72.0461 20.426C74.0157 21.0682 76.1577 21.0589 78.0783 20.4009C79.0468 20.066 79.9217 19.5557 80.6792 18.8832C81.4412 18.2027 82.0695 17.3337 82.5434 16.2986C83.0172 15.2569 83.2579 14.0107 83.2579 12.5945V0.41275H85.4503V13.5136C85.4503 15.0723 85.1205 16.4648 84.4684 17.6515C83.8178 18.837 82.94 19.8405 81.8586 20.6357C80.7906 21.4242 79.5592 22.0229 78.1986 22.4172C76.8543 22.8035 75.4521 23 74.0291 23H74.0306ZM63.3061 0.970542V13.5136C63.3061 14.9852 63.6165 16.296 64.227 17.4063C64.836 18.5219 65.653 19.4634 66.6571 20.2071C67.6642 20.9548 68.8198 21.5192 70.0928 21.8871C72.6789 22.6308 75.4655 22.6176 78.0055 21.8871C79.2889 21.5152 80.452 20.9508 81.459 20.2071C82.4706 19.4621 83.2935 18.5205 83.9055 17.4076C84.5145 16.2973 84.8235 14.9879 84.8235 13.5136V0.970542H83.8877V12.5945C83.8877 14.0819 83.6322 15.3993 83.1271 16.5083C82.6206 17.6133 81.9477 18.5443 81.1263 19.2774C80.3064 20.004 79.3587 20.5579 78.3085 20.9205C76.2438 21.6273 73.9444 21.6378 71.8322 20.9495C70.782 20.6093 69.8344 20.0976 69.0144 19.4278C68.1945 18.7632 67.5261 17.9219 67.027 16.9276C66.5323 15.9439 66.2828 14.7953 66.2828 13.5149V0.970542H63.3076H63.3061Z" fill="#353535"/>
<path d="M117.846 0.602631V21.742H114.43L98.6715 3.20302V21.742H97.0376V0.602631H101.09L101.139 0.66197L116.25 18.4902V0.602631H117.846Z" fill="#353535"/>
<path d="M118.161 22.0203H114.274L98.9864 4.0351V22.0203H96.7241V0.324402H101.247L101.391 0.494509L115.936 17.6555V0.324402H118.161V22.0203ZM114.586 21.4638H117.533V0.882193H116.563V19.3249L100.932 0.882193H97.351V21.4638H98.3566V2.37096L114.584 21.4625L114.586 21.4638Z" fill="#353535"/>
<path d="M151.437 0.602631V21.742H148.019L132.258 3.20302V21.742H130.624V0.602631H134.676L134.727 0.66197L149.836 18.4902V0.602631H151.437Z" fill="#353535"/>
<path d="M151.751 22.0203H147.863L132.573 4.0351V22.0203H130.311V0.324402H134.834L134.978 0.494509L149.523 17.6555V0.324402H151.751V22.0203ZM148.177 21.4638H151.124V0.882193H150.151V19.3249L134.519 0.882193H130.937V21.4638H131.943V2.37096L148.175 21.4625L148.177 21.4638Z" fill="#353535"/>
<path d="M168.293 2.05315V9.78443H177.699V11.231H168.293V20.2941H181.937V21.742H164.66V0.602631H181.937V2.05315H168.293Z" fill="#353535"/>
<path d="M182.25 22.0203H164.347V0.324402H182.25V2.33272H168.607V9.5062H178.012V11.5106H168.607V20.0159H182.25V22.0203ZM164.974 21.4638H181.622V20.5737H167.978V10.9528H177.384V10.0627H167.978V1.77492H181.622V0.882193H164.974V21.4638Z" fill="#353535"/>
<path d="M214.657 21.742L214.64 21.5824C214.551 20.7095 214.358 19.8312 214.066 18.9768C213.773 18.1223 213.375 17.3139 212.883 16.5768C212.389 15.837 211.784 15.1817 211.083 14.6305C210.475 14.1531 209.785 13.7878 209.024 13.5399C210.247 13.1945 211.266 12.6736 212.056 11.9892C212.937 11.2283 213.564 10.3501 213.916 9.38354C214.265 8.4196 214.357 7.40819 214.187 6.38491C214.018 5.36164 213.583 4.40693 212.892 3.55112C212.199 2.69663 211.242 1.98851 210.046 1.44918C208.85 0.907215 207.375 0.632935 205.669 0.632935H193.896V21.742H197.529V13.9856H205.134C205.814 13.9856 206.502 14.1386 207.176 14.4432C207.851 14.7505 208.458 15.2212 208.986 15.8529C209.517 16.4871 209.956 17.2889 210.294 18.2383C210.633 19.1877 210.805 20.3165 210.805 21.5969V21.7446H214.654L214.657 21.742ZM203.534 12.7435H197.53V1.87643H203.534C205.052 1.87643 206.343 2.14807 207.37 2.68476C208.396 3.22146 209.176 3.90188 209.694 4.70494C210.21 5.50669 210.484 6.38491 210.505 7.31457C210.529 8.24026 210.285 9.11585 209.791 9.92023C209.296 10.722 208.522 11.3998 207.485 11.9338C206.449 12.4731 205.121 12.7448 203.533 12.7448L203.534 12.7435Z" fill="#353535"/>
<path d="M215 22.0202H210.492V21.5943C210.492 20.3455 210.324 19.2445 209.996 18.3201C209.666 17.397 209.243 16.623 208.735 16.0177C208.238 15.4243 207.665 14.9773 207.034 14.6898C206.405 14.4076 205.767 14.2639 205.134 14.2639H197.842V22.0202H193.581V0.353394H205.667C207.427 0.353394 208.948 0.638223 210.187 1.19997C211.425 1.75908 212.42 2.49489 213.145 3.38762C213.864 4.27771 214.318 5.27198 214.496 6.34273C214.673 7.40689 214.577 8.45917 214.213 9.46663C213.844 10.478 213.192 11.3932 212.273 12.187C211.616 12.7554 210.808 13.2169 209.868 13.5611C210.38 13.7918 210.856 14.0793 211.289 14.4195C212.013 14.9892 212.64 15.6656 213.151 16.4318C213.657 17.19 214.064 18.0181 214.363 18.8924C214.66 19.7627 214.857 20.6581 214.949 21.5548L214.998 22.0176L215 22.0202ZM211.12 21.4638H214.311C214.217 20.6528 214.033 19.8445 213.764 19.0572C213.48 18.2251 213.093 17.4379 212.611 16.7179C212.133 16.0019 211.548 15.3689 210.873 14.8388C210.297 14.3852 209.638 14.0371 208.914 13.8011L208.053 13.5202L208.928 13.2736C210.103 12.9426 211.08 12.4428 211.836 11.7888C212.681 11.0582 213.28 10.2196 213.617 9.29652C213.951 8.37082 214.039 7.40425 213.877 6.42449C213.714 5.44209 213.298 4.52958 212.637 3.71333C211.971 2.89444 211.052 2.21534 209.904 1.6971C208.754 1.17492 207.329 0.911185 205.669 0.911185H194.209V21.4638H197.214V13.7074H205.132C205.865 13.7074 206.6 13.8709 207.317 14.194C208.038 14.521 208.683 15.0234 209.238 15.6854C209.788 16.3408 210.244 17.1702 210.594 18.1526C210.931 19.0981 211.108 20.211 211.12 21.4638ZM203.534 13.023H197.215V1.5982H203.534C205.112 1.5982 206.456 1.88303 207.53 2.44478C208.599 3.00389 209.419 3.71729 209.967 4.5665C210.513 5.4144 210.798 6.33746 210.82 7.30931C210.844 8.27852 210.591 9.2029 210.067 10.0547C209.543 10.904 208.727 11.6187 207.644 12.1765C206.563 12.7395 205.18 13.0244 203.534 13.0244V13.023ZM197.844 12.4653H203.534C205.067 12.4653 206.343 12.2055 207.328 11.6925C208.313 11.1862 209.048 10.544 209.516 9.78574C209.985 9.02092 210.214 8.19149 210.192 7.31985C210.172 6.44163 209.914 5.60824 209.422 4.8421C208.929 4.07992 208.185 3.43377 207.211 2.92477C206.235 2.41445 204.997 2.156 203.534 2.156H197.844V12.4666V12.4653Z" fill="#353535"/>
</g>
<defs>
<clipPath id="clip0_257_193">
<rect width="215" height="23" fill="white"/>
</clipPath>
</defs>
</svg>
