<svg width="125" height="14" viewBox="0 0 125 14" fill="none" xmlns="http://www.w3.org/2000/svg">
<g clip-path="url(#clip0_857_317)">
<path d="M11.8409 9.65875C11.8409 10.0568 11.7346 10.4801 11.5222 10.9116C11.1396 11.6547 10.5006 12.21 9.62228 12.5611C8.75349 12.9114 7.69299 13.088 6.46927 13.088C5.24555 13.088 4.17383 12.9464 3.19105 12.6661C2.20655 12.3844 1.24709 11.8776 0.335125 11.1583L0.261719 11.1017L0.746198 10.662L0.81615 10.7186C1.60203 11.3655 2.42417 11.8098 3.26014 12.0386C4.10215 12.2704 4.94761 12.4038 5.7758 12.4366C5.86821 12.4485 5.95111 12.453 6.03229 12.453H6.31383C6.75944 12.453 7.20938 12.4194 7.65413 12.3546C8.09629 12.2883 8.51169 12.1765 8.88994 12.0177C9.26475 11.8612 9.59291 11.648 9.86927 11.3842C10.1396 11.1226 10.3209 10.7961 10.4082 10.4108C10.4816 10.0776 10.4254 9.78247 10.2458 9.53428C10.0627 9.27938 9.77254 9.04907 9.38651 8.84932C8.99444 8.64734 8.50391 8.46101 7.93221 8.29629C7.35705 8.13157 6.71367 7.97431 6.02107 7.82972C5.42605 7.70823 4.78353 7.56512 4.10733 7.40339C3.42422 7.24016 2.78688 7.01507 2.21345 6.73334C1.63398 6.45012 1.159 6.08192 0.796287 5.63845C0.429257 5.19051 0.263446 4.61512 0.304035 3.92867C0.342897 3.31378 0.538071 2.78683 0.883511 2.36199C1.22722 1.94238 1.66334 1.59878 2.18496 1.34239C2.70225 1.08898 3.28 0.902644 3.8992 0.789355C4.51927 0.677556 5.13501 0.620911 5.73349 0.620911C6.18947 0.6306 6.65236 0.669357 7.11438 0.731219C7.57814 0.793081 8.04275 0.892955 8.49873 1.02637C8.95471 1.16127 9.40206 1.33792 9.83299 1.55257C10.2657 1.76722 10.6707 2.03554 11.0377 2.35231L11.1146 2.41864L10.5567 2.78683L10.4971 2.73988C9.86408 2.24796 9.11275 1.87977 8.26297 1.6435C7.40801 1.40872 6.54268 1.26487 5.68685 1.22164H5.40273C4.91048 1.22164 4.43722 1.27978 3.99506 1.39307C3.55462 1.50785 3.16255 1.66959 2.83093 1.87455C2.50103 2.07952 2.24023 2.32622 2.05455 2.60944C1.86888 2.89118 1.77647 3.20794 1.77647 3.54781C1.77647 3.84296 1.85161 4.08743 2.00274 4.27972C2.153 4.47276 2.40863 4.64642 2.75925 4.79474C3.12023 4.94828 3.6073 5.1048 4.20751 5.25983C4.81548 5.41635 5.56508 5.60491 6.45718 5.82777C7.43823 6.06105 8.28024 6.30403 8.9599 6.55073C9.643 6.79744 10.2018 7.07246 10.6223 7.36538C11.0455 7.66351 11.3581 8.0004 11.5507 8.3671C11.7415 8.7338 11.84 9.16683 11.84 9.65726L11.8409 9.65875Z" fill="white"/>
<path d="M6.46922 13.2461C5.25587 13.2461 4.13405 13.1015 3.13314 12.8168C2.12359 12.5284 1.14082 12.0096 0.211582 11.2755L0 11.1115L0.739241 10.44L0.941323 10.6047C1.70906 11.236 2.50789 11.6683 3.31536 11.8889C4.13923 12.1155 4.97002 12.2474 5.78439 12.2802L5.80253 12.2817C5.88284 12.2921 5.95797 12.2966 6.03311 12.2966H6.31464C6.74817 12.2966 7.1886 12.2645 7.62386 12.2004C8.05307 12.1356 8.45291 12.0268 8.81044 11.8777C9.16106 11.7309 9.47196 11.5304 9.73363 11.2807C9.98148 11.0407 10.1482 10.7389 10.2285 10.3833C10.2924 10.0927 10.2457 9.83551 10.0903 9.62011C9.92276 9.38757 9.65418 9.17441 9.29233 8.98659C8.91148 8.79057 8.43391 8.60945 7.8743 8.44771C7.30864 8.28523 6.67044 8.12946 5.97784 7.98487C5.38023 7.86263 4.73425 7.71878 4.05892 7.55705C3.3594 7.3901 2.70825 7.15979 2.12359 6.87209C1.52425 6.57918 1.02768 6.19534 0.6477 5.731C0.256489 5.2525 0.0794512 4.64431 0.121768 3.92209C0.162357 3.27738 0.367893 2.72285 0.73406 2.27342C1.09504 1.83293 1.55275 1.47369 2.09423 1.2076C2.62966 0.945249 3.22468 0.7537 3.86115 0.637429C4.49417 0.523394 5.12374 0.466003 5.73344 0.466003C6.18855 0.475693 6.66094 0.513704 7.14197 0.577803C7.60918 0.639665 8.08588 0.741029 8.55741 0.878915C9.02548 1.01755 9.48491 1.19866 9.92449 1.41853C10.3727 1.64138 10.7907 1.91865 11.1672 2.24361L11.3917 2.43739L10.548 2.99415L10.3753 2.85999C9.76299 2.38448 9.03325 2.02672 8.20765 1.79641C7.36046 1.56387 6.50895 1.42449 5.6773 1.38201H5.40441C4.93288 1.38201 4.47604 1.43791 4.04855 1.54747C3.62712 1.65778 3.25318 1.81206 2.93883 2.00585C2.63052 2.1974 2.38699 2.42771 2.21513 2.69006C2.04587 2.94645 1.96037 3.23639 1.96037 3.55091C1.96037 3.81327 2.026 4.03016 2.15468 4.19413C2.28768 4.36481 2.51826 4.51984 2.84038 4.65549C3.19532 4.80604 3.67289 4.95958 4.261 5.11088C4.85688 5.26442 5.59094 5.44926 6.50895 5.67882C7.49518 5.9136 8.34496 6.15881 9.03152 6.40775C9.72499 6.65818 10.2993 6.93992 10.738 7.2455C11.1845 7.56003 11.5135 7.9163 11.7182 8.30461C11.9211 8.69442 12.0239 9.14981 12.0239 9.65962C12.0239 10.083 11.9116 10.5249 11.6905 10.9744C11.289 11.7555 10.6188 12.3368 9.69909 12.705C8.80785 13.0643 7.72058 13.2461 6.46922 13.2461ZM0.523341 11.0936C1.39644 11.7711 2.31186 12.2496 3.248 12.5179C4.21091 12.7922 5.29473 12.9316 6.46922 12.9316C7.64372 12.9316 8.70163 12.7594 9.54537 12.4196C10.3831 12.0842 10.9919 11.5557 11.3555 10.8484C11.5558 10.4407 11.6586 10.0397 11.6586 9.65887C11.6586 9.19379 11.5662 8.78162 11.3848 8.43355C11.2043 8.0907 10.909 7.77245 10.5074 7.48922C10.0963 7.20302 9.55227 6.93694 8.88989 6.69769C8.21715 6.45396 7.38291 6.21248 6.40964 5.98068C5.48818 5.75038 4.75325 5.56553 4.1565 5.41125C3.54939 5.25473 3.05282 5.09523 2.67975 4.93648C2.2989 4.77549 2.02082 4.58468 1.85156 4.36854C1.68143 4.15165 1.59507 3.87588 1.59507 3.54868C1.59507 3.179 1.69697 2.83689 1.89733 2.5328C2.09509 2.23019 2.37404 1.96635 2.72552 1.74797C3.07269 1.53331 3.4829 1.36412 3.9432 1.24338C4.40522 1.12487 4.89661 1.06525 5.40354 1.06525H5.68767C6.5599 1.10922 7.44164 1.25307 8.31905 1.49381C9.17056 1.73082 9.92621 2.09753 10.567 2.58273L10.839 2.40385C10.5048 2.1251 10.1361 1.88436 9.74313 1.68909C9.32342 1.47965 8.88558 1.30673 8.44082 1.17481C7.99002 1.04289 7.53491 0.945994 7.08756 0.886368C6.62122 0.824506 6.16524 0.787985 5.72998 0.778296C5.15051 0.778296 4.54512 0.834195 3.93801 0.943013C3.33781 1.05258 2.77906 1.23295 2.27645 1.4789C1.78161 1.72263 1.36362 2.04982 1.03373 2.4523C0.708152 2.85254 0.524205 3.35191 0.487934 3.93625C0.449935 4.58543 0.603656 5.12728 0.947369 5.5469C1.29626 5.97248 1.75311 6.32502 2.30581 6.59558C2.86542 6.86986 3.48808 7.09047 4.15823 7.25072C4.83011 7.41171 5.47177 7.55407 6.06506 7.6763C6.76803 7.82313 7.41573 7.98114 7.99175 8.1466C8.57641 8.31505 9.0773 8.5066 9.48146 8.7138C9.89426 8.92771 10.2043 9.17515 10.4021 9.45093C10.6076 9.73489 10.6706 10.0681 10.5886 10.44C10.4953 10.8521 10.3002 11.2047 10.0065 11.4887C9.71204 11.7689 9.36401 11.9947 8.97107 12.1587C8.58332 12.3212 8.15152 12.4389 7.6869 12.509C7.23006 12.5761 6.76889 12.6096 6.3155 12.6096H6.03397C5.94416 12.6096 5.85434 12.6044 5.76021 12.5925C4.91647 12.5582 4.05719 12.4218 3.20655 12.187C2.36799 11.9582 1.54325 11.5192 0.754786 10.8827L0.525069 11.0914L0.523341 11.0936Z" fill="white"/>
<path d="M30.5144 0.822144V1.52499H24.3492V12.7533H22.2351V1.52499H16.0698V0.822144H30.5144Z" fill="white"/>
<path d="M24.5313 12.9106H22.052V1.68224H15.8867V0.664124H30.6966V1.68224H24.5313V12.9106ZM22.4173 12.5961H24.166V1.36771H30.3313V0.979397H16.252V1.36771H22.4173V12.5961Z" fill="white"/>
<path d="M49.4982 0.854919V8.10174C49.4982 8.95812 49.3125 9.72134 48.9464 10.3713C48.5793 11.0212 48.0853 11.5712 47.4774 12.0058C46.8711 12.441 46.1742 12.769 45.409 12.9836C44.6465 13.1968 43.8485 13.3049 43.0419 13.3049C42.2353 13.3049 41.4589 13.1968 40.6964 12.9836C39.9295 12.769 39.2386 12.4388 38.6384 12.0058C38.0339 11.5705 37.5434 11.0212 37.1789 10.3713C36.8119 9.72283 36.6245 8.95812 36.6245 8.10174V0.854919H38.7196V8.10174C38.7196 8.80011 38.8586 9.42842 39.1367 9.96655C39.4148 10.5062 39.787 10.9645 40.249 11.3283C40.7085 11.6935 41.2396 11.9715 41.8268 12.1563C42.9987 12.5282 44.2864 12.5327 45.4626 12.1414C46.0472 11.9446 46.5784 11.645 47.0378 11.2485C47.4972 10.8505 47.8755 10.3422 48.1613 9.7355C48.4455 9.1288 48.5897 8.40583 48.5897 7.58225V0.854919H49.4991H49.4982Z" fill="white"/>
<path d="M43.0411 13.4643C42.2284 13.4643 41.4201 13.3533 40.6385 13.1349C39.8535 12.9143 39.1402 12.5759 38.5192 12.128C37.8957 11.6793 37.3888 11.1121 37.0123 10.4413C36.6323 9.7705 36.4397 8.98344 36.4397 8.1032V0.697632H38.9001V8.10246C38.9001 8.78145 39.0348 9.3874 39.3017 9.90317C39.5711 10.4256 39.9304 10.8661 40.3699 11.2127C40.8112 11.563 41.3216 11.8313 41.8873 12.0095C43.0324 12.3724 44.2777 12.3672 45.3944 11.9953C45.9574 11.806 46.4661 11.5175 46.9065 11.1374C47.3496 10.7528 47.7149 10.2617 47.9903 9.67659C48.2658 9.08778 48.4057 8.38345 48.4057 7.58297V0.697632H49.6804V8.10246C49.6804 8.98344 49.4887 9.7705 49.1096 10.4413C48.7313 11.1113 48.2209 11.6785 47.5922 12.128C46.9713 12.5737 46.2554 12.9121 45.4643 13.1349C44.6828 13.3533 43.8675 13.4643 43.0402 13.4643H43.0411ZM36.8059 1.01291V8.10246C36.8059 8.93425 36.9864 9.6751 37.3413 10.3027C37.6954 10.9332 38.1703 11.4654 38.7541 11.8857C39.3397 12.3083 40.0115 12.6273 40.7516 12.8353C42.2552 13.2557 43.8753 13.2482 45.352 12.8353C46.0982 12.6251 46.7744 12.3061 47.3599 11.8857C47.948 11.4646 48.4265 10.9325 48.7823 10.3034C49.1363 9.67585 49.316 8.93574 49.316 8.10246V1.01291H48.7719V7.58297C48.7719 8.4237 48.6234 9.16828 48.3297 9.7951C48.0352 10.4197 47.644 10.9459 47.1665 11.3603C46.6898 11.771 46.1388 12.084 45.5282 12.289C44.3278 12.6885 42.991 12.6944 41.7629 12.3054C41.1524 12.1131 40.6014 11.8239 40.1247 11.4453C39.648 11.0696 39.2593 10.5941 38.9692 10.0321C38.6816 9.4761 38.5365 8.82692 38.5365 8.1032V1.01291H36.8067H36.8059Z" fill="white"/>
<path d="M68.5154 0.804993V12.7533H66.5291L57.3672 2.27478V12.7533H56.4172V0.804993H58.7731L58.8016 0.838532L67.587 10.9154V0.804993H68.5154Z" fill="white"/>
<path d="M68.6986 12.9106H66.4385L57.5504 2.74506V12.9106H56.2351V0.647705H58.8648L58.9485 0.743852L67.4049 10.4435V0.647705H68.6986V12.9106ZM66.6199 12.596H68.3333V0.962979H67.7693V11.3871L58.6817 0.962979H56.5995V12.596H57.1842V1.80445L66.619 12.5953L66.6199 12.596Z" fill="white"/>
<path d="M88.0448 0.804993V12.7533H86.0577L76.8941 2.27478V12.7533H75.9441V0.804993H78.3L78.3294 0.838532L87.1139 10.9154V0.804993H88.0448Z" fill="white"/>
<path d="M88.2272 12.9106H85.9671L77.0772 2.74506V12.9106H75.762V0.647705H78.3916L78.4754 0.743852L86.9318 10.4435V0.647705H88.2272V12.9106ZM86.1493 12.596H87.8627V0.962979H87.2971V11.3871L78.2085 0.962979H76.1264V12.596H76.7111V1.80445L86.1485 12.5953L86.1493 12.596Z" fill="white"/>
<path d="M97.8448 1.62485V5.99471H103.313V6.81233H97.8448V11.935H105.777V12.7533H95.7324V0.804993H105.777V1.62485H97.8448Z" fill="white"/>
<path d="M105.959 12.9106H95.5503V0.647705H105.959V1.78284H98.0271V5.83742H103.495V6.97032H98.0271V11.7777H105.959V12.9106ZM95.9147 12.596H105.594V12.093H97.6618V6.65504H103.13V6.15195H97.6618V1.46757H105.594V0.962979H95.9147V12.596Z" fill="white"/>
<path d="M124.801 12.7533L124.791 12.6632C124.739 12.1698 124.627 11.6734 124.457 11.1904C124.287 10.7074 124.055 10.2505 123.769 9.8339C123.482 9.41577 123.13 9.04534 122.723 8.73379C122.369 8.46398 121.968 8.25753 121.526 8.11741C122.236 7.92213 122.829 7.62773 123.288 7.2409C123.8 6.81085 124.165 6.31446 124.37 5.76814C124.573 5.2233 124.626 4.65164 124.528 4.07326C124.429 3.49489 124.176 2.95527 123.775 2.47155C123.371 1.98858 122.815 1.58834 122.12 1.2835C121.425 0.977172 120.567 0.822144 119.575 0.822144H112.73V12.7533H114.842V8.36933H119.264C119.66 8.36933 120.059 8.45579 120.451 8.62796C120.844 8.80162 121.197 9.0677 121.503 9.42471C121.812 9.78321 122.067 10.2364 122.264 10.773C122.461 11.3096 122.561 11.9476 122.561 12.6714V12.7548H124.799L124.801 12.7533ZM118.334 7.66723H114.843V1.52499H118.334C119.216 1.52499 119.967 1.67852 120.564 1.98187C121.16 2.28522 121.614 2.66981 121.915 3.12371C122.215 3.57687 122.375 4.07326 122.387 4.59872C122.401 5.12194 122.259 5.61683 121.971 6.07148C121.684 6.52464 121.234 6.90774 120.631 7.2096C120.028 7.51444 119.256 7.66798 118.333 7.66798L118.334 7.66723Z" fill="white"/>
<path d="M125 12.9106H122.379V12.6699C122.379 11.964 122.281 11.3417 122.091 10.8192C121.899 10.2975 121.653 9.85997 121.357 9.51787C121.069 9.18247 120.736 8.9298 120.369 8.76732C120.003 8.60782 119.632 8.52658 119.264 8.52658H115.025V12.9106H112.547V0.664124H119.574C120.597 0.664124 121.482 0.825114 122.202 1.14262C122.921 1.45864 123.5 1.87454 123.921 2.37912C124.339 2.88222 124.604 3.44419 124.707 4.0494C124.81 4.65088 124.754 5.24565 124.542 5.81508C124.328 6.38675 123.949 6.904 123.414 7.35269C123.033 7.67393 122.563 7.93479 122.016 8.12932C122.314 8.25975 122.591 8.42224 122.843 8.61453C123.263 8.93651 123.628 9.31887 123.925 9.7519C124.219 10.1805 124.456 10.6485 124.63 11.1427C124.802 11.6346 124.917 12.1407 124.971 12.6475L124.999 12.9091L125 12.9106ZM122.744 12.5961H124.599C124.545 12.1377 124.438 11.6808 124.281 11.2358C124.117 10.7655 123.891 10.3206 123.611 9.91364C123.333 9.50892 122.993 9.15117 122.601 8.85155C122.266 8.59515 121.882 8.39839 121.462 8.26497L120.961 8.10622L121.47 7.96684C122.153 7.77976 122.721 7.49729 123.161 7.1276C123.652 6.71469 124 6.24066 124.196 5.71893C124.39 5.19571 124.441 4.64939 124.347 4.09561C124.252 3.54034 124.01 3.02458 123.626 2.56322C123.239 2.10037 122.705 1.71653 122.037 1.42361C121.369 1.12846 120.54 0.979397 119.575 0.979397H112.912V12.5961H114.659V8.21205H119.263C119.689 8.21205 120.116 8.30447 120.533 8.48708C120.952 8.67192 121.327 8.95589 121.65 9.33004C121.97 9.70047 122.235 10.1693 122.439 10.7246C122.635 11.259 122.737 11.888 122.744 12.5961ZM118.334 7.82523H114.66V1.36771H118.334C119.251 1.36771 120.033 1.5287 120.657 1.84621C121.279 2.16223 121.755 2.56545 122.074 3.04544C122.391 3.52469 122.557 4.04642 122.57 4.59573C122.584 5.14354 122.437 5.66602 122.132 6.1475C121.827 6.62749 121.353 7.03146 120.723 7.34673C120.095 7.66498 119.291 7.82597 118.334 7.82597V7.82523ZM115.025 7.50996H118.334C119.225 7.50996 119.967 7.36313 120.539 7.07319C121.112 6.78699 121.54 6.42401 121.812 5.99545C122.084 5.56316 122.217 5.09435 122.205 4.60169C122.193 4.1053 122.043 3.63425 121.757 3.20122C121.47 2.77042 121.038 2.40521 120.471 2.11751C119.904 1.82907 119.185 1.68299 118.334 1.68299H115.025V7.5107V7.50996Z" fill="white"/>
</g>
<defs>
<clipPath id="clip0_857_317">
<rect width="125" height="13" fill="white" transform="translate(0 0.464355)"/>
</clipPath>
</defs>
</svg>
